<svg id="Colored_Logo" data-name="Colored Logo" xmlns="http://www.w3.org/2000/svg" width="184" height="154" viewBox="0 0 184 154">
  <text id="CommFor_2.0" data-name="CommFor 2.0" transform="translate(92 148)" fill="#d47f1f" font-size="30" font-family="ArialMT, Arial"><tspan x="-91" y="0">CommFor 2.0</tspan></text>
  <rect id="Rectangle_7" data-name="Rectangle 7" width="6" height="18" transform="translate(62 96)" fill="#793416"/>
  <rect id="Rectangle_8" data-name="Rectangle 8" width="6" height="16" transform="translate(121 98)" fill="#793416"/>
  <rect id="Rectangle_9" data-name="Rectangle 9" width="4" height="28" transform="translate(97 86)" fill="#793416"/>
  <rect id="Rectangle_10" data-name="Rectangle 10" width="4" height="16" transform="translate(39 98)" fill="#793416"/>
  <rect id="Rectangle_11" data-name="Rectangle 11" width="4" height="38" transform="translate(146 76)" fill="#793416"/>
  <g id="Union_3" data-name="Union 3" transform="translate(32)" fill="none">
    <path d="M7,98a7,7,0,0,1-7-7V62a7,7,0,0,1,7-7h4V7a7,7,0,0,1,7-7H42a7,7,0,0,1,7,7V55h8a7,7,0,0,1,7,7V91a7,7,0,0,1-7,7Z" stroke="none"/>
    <path d="M 56.99970245361328 95.00009918212891 C 59.20542907714844 95.00009918212891 60.99990463256836 93.20561981201172 60.99990463256836 90.99989318847656 L 60.99990463256836 62.0001106262207 C 60.99990463256836 59.79438781738281 59.20542907714844 57.99989700317383 56.99970245361328 57.99989700317383 L 45.99959564208984 57.99989700317383 L 45.99959564208984 7.000203609466553 C 45.99959564208984 4.794480323791504 44.20552062988281 3.000003337860107 42.00030517578125 3.000003337860107 L 17.99999618530273 3.000003337860107 C 15.79427337646484 3.000003337860107 13.99979686737061 4.794480323791504 13.99979686737061 7.000203609466553 L 13.99979686737061 57.99989700317383 L 7.00019645690918 57.99989700317383 C 4.794473648071289 57.99989700317383 2.999996662139893 59.79438781738281 2.999996662139893 62.0001106262207 L 2.999996662139893 90.99989318847656 C 2.999996662139893 93.20561981201172 4.794473648071289 95.00009918212891 7.00019645690918 95.00009918212891 L 56.99970245361328 95.00009918212891 M 56.99970245361328 98.00009918212891 L 7.00019645690918 98.00009918212891 C 3.133796453475952 98.00009918212891 -3.437218310864409e-06 94.86631011962891 -3.437218310864409e-06 90.99989318847656 L -3.437218310864409e-06 62.0001106262207 C -3.437218310864409e-06 58.13369750976562 3.133796453475952 54.99989700317383 7.00019645690918 54.99989700317383 L 10.99979686737061 54.99989700317383 L 10.99979686737061 7.000203609466553 C 10.99979686737061 3.133803367614746 14.13359642028809 3.437218310864409e-06 17.99999618530273 3.437218310864409e-06 L 42.00030517578125 3.437218310864409e-06 C 45.86579513549805 3.437218310864409e-06 48.99959564208984 3.133803367614746 48.99959564208984 7.000203609466553 L 48.99959564208984 54.99989700317383 L 56.99970245361328 54.99989700317383 C 60.86610412597656 54.99989700317383 63.99990463256836 58.13369750976562 63.99990463256836 62.0001106262207 L 63.99990463256836 90.99989318847656 C 63.99990463256836 94.86631011962891 60.86610412597656 98.00009918212891 56.99970245361328 98.00009918212891 Z" stroke="none" fill="#fff"/>
  </g>
  <g id="Union_8" data-name="Union 8" transform="translate(102 35)" fill="none">
    <path d="M7,65a7,7,0,0,1-7-7V27a7,7,0,0,1,7-7H19V7a7,7,0,0,1,7-7H61a7,7,0,0,1,7,7V35a7,7,0,0,1-7,7H46V58a7,7,0,0,1-7,7Z" stroke="none"/>
    <path d="M 38.99970245361328 61.99980163574219 C 41.20542526245117 61.99980163574219 42.99990081787109 60.205322265625 42.99990081787109 57.99959945678711 L 42.99990081787109 39.00030136108398 L 61.00020217895508 39.00030136108398 C 63.20592498779297 39.00030136108398 65.00040435791016 37.2058219909668 65.00040435791016 35.00009918212891 L 65.00040435791016 7.000200748443604 C 65.00040435791016 4.794478416442871 63.20592498779297 3.000000715255737 61.00020217895508 3.000000715255737 L 26.00010299682617 3.000000715255737 C 23.79438018798828 3.000000715255737 21.99990272521973 4.794478416442871 21.99990272521973 7.000200748443604 L 21.99990272521973 22.99980163574219 L 7.000202178955078 22.99980163574219 C 4.794479846954346 22.99980163574219 3.000002145767212 24.79427909851074 3.000002145767212 27 L 3.000002145767212 57.99959945678711 C 3.000002145767212 60.205322265625 4.794479846954346 61.99980163574219 7.000202178955078 61.99980163574219 L 38.99970245361328 61.99980163574219 M 38.99970245361328 64.99980163574219 L 7.000202178955078 64.99980163574219 C 3.133802175521851 64.99980163574219 2.178955128329108e-06 61.86600112915039 2.178955128329108e-06 57.99959945678711 L 2.178955128329108e-06 27 C 2.178955128329108e-06 23.13360023498535 3.133802175521851 19.99980163574219 7.000202178955078 19.99980163574219 L 18.99990272521973 19.99980163574219 L 18.99990272521973 7.000200748443604 C 18.99990272521973 3.133800745010376 22.13370132446289 8.178710686479462e-07 26.00010299682617 8.178710686479462e-07 L 61.00020217895508 8.178710686479462e-07 C 64.86569976806641 8.178710686479462e-07 68.00040435791016 3.133800745010376 68.00040435791016 7.000200748443604 L 68.00040435791016 35.00009918212891 C 68.00040435791016 38.8656005859375 64.86569976806641 42.00030136108398 61.00020217895508 42.00030136108398 L 45.99990081787109 42.00030136108398 L 45.99990081787109 57.99959945678711 C 45.99990081787109 61.86600112915039 42.8661003112793 64.99980163574219 38.99970245361328 64.99980163574219 Z" stroke="none" fill="#505921"/>
  </g>
  <g id="Union_5" data-name="Union 5" transform="translate(20)" fill="none">
    <path d="M69,98H19a7,7,0,0,1-7-7V84H7a7,7,0,0,1-7-7V49a7,7,0,0,1,7-7H23V7a7,7,0,0,1,7-7H54a7,7,0,0,1,7,7V55h8a6.969,6.969,0,0,1,3.067.706l.005,0,.007,0A7,7,0,0,1,76,62V91a6.992,6.992,0,0,1-7,7Z" stroke="none"/>
    <path d="M 69.00031280517578 95.00009918212891 C 70.80354309082031 95.00009918212891 72.3912353515625 93.78678894042969 72.86129760742188 92.04957580566406 C 72.95306396484375 91.71037292480469 72.99960327148438 91.35721588134766 72.99960327148438 90.99989318847656 L 72.99960327148438 62.0001106262207 C 72.99960327148438 60.46134185791016 72.14066314697266 59.08391189575195 70.75800323486328 58.40535736083984 L 70.74949645996094 58.40118026733398 C 70.20388031005859 58.13490676879883 69.61537933349609 57.99989700317383 69.00031280517578 57.99989700317383 L 57.99930953979492 57.99989700317383 L 57.99930953979492 7.000203609466553 C 57.99930953979492 4.794480323791504 56.20523071289062 3.000003337860107 54 3.000003337860107 L 29.99969482421875 3.000003337860107 C 27.79397010803223 3.000003337860107 25.9994945526123 4.794480323791504 25.9994945526123 7.000203609466553 L 25.9994945526123 45.00029754638672 L 7.00020170211792 45.00029754638672 C 4.794478416442871 45.00029754638672 3.000001668930054 46.79477310180664 3.000001668930054 49.00049591064453 L 3.000001668930054 77.00040435791016 C 3.000001668930054 79.20612335205078 4.794478416442871 81.00060272216797 7.00020170211792 81.00060272216797 L 14.99969387054443 81.00060272216797 L 14.99969387054443 90.99989318847656 C 14.99969387054443 93.20561981201172 16.79418563842773 95.00009918212891 18.99990844726562 95.00009918212891 L 69.00031280517578 95.00009918212891 M 69.00031280517578 98.00009918212891 L 18.99990844726562 98.00009918212891 C 15.13349437713623 98.00009918212891 11.99969387054443 94.86631011962891 11.99969387054443 90.99989318847656 L 11.99969387054443 84.00060272216797 L 7.00020170211792 84.00060272216797 C 3.133801698684692 84.00060272216797 1.635742137295892e-06 80.86591339111328 1.635742137295892e-06 77.00040435791016 L 1.635742137295892e-06 49.00049591064453 C 1.635742137295892e-06 45.13409423828125 3.133801698684692 42.00029754638672 7.00020170211792 42.00029754638672 L 22.9994945526123 42.00029754638672 L 22.9994945526123 7.000203609466553 C 22.9994945526123 3.133803367614746 26.13329315185547 3.437218310864409e-06 29.99969482421875 3.437218310864409e-06 L 54 3.437218310864409e-06 C 57.86550903320312 3.437218310864409e-06 60.99930953979492 3.133803367614746 60.99930953979492 7.000203609466553 L 60.99930953979492 54.99989700317383 L 69.00031280517578 54.99989700317383 C 70.10044860839844 54.99989700317383 71.14110565185547 55.25372695922852 72.06733703613281 55.70612716674805 C 72.06912231445312 55.70700454711914 72.07095336914062 55.70788192749023 72.07275390625 55.70875549316406 C 72.07492828369141 55.70983505249023 72.07749176025391 55.71111297607422 72.07968139648438 55.71218872070312 C 74.40145111083984 56.85160446166992 75.99960327148438 59.23906326293945 75.99960327148438 62.0001106262207 L 75.99960327148438 90.99989318847656 C 75.99960327148438 91.63423156738281 75.91524505615234 92.24884796142578 75.75715637207031 92.8331298828125 C 74.95161437988281 95.81023406982422 72.23162078857422 98.00009918212891 69.00031280517578 98.00009918212891 Z" stroke="none" fill="#505921"/>
  </g>
  <g id="Union_10" data-name="Union 10" transform="translate(32)" fill="none">
    <path d="M77,100a7,7,0,0,1-7-7V87H64v4a7,7,0,0,1-7,7H7a7,7,0,0,1-7-7V62a7,7,0,0,1,6.6-6.989C6.729,55,6.864,55,7,55h4V7a7,7,0,0,1,7-7H42a7,7,0,0,1,7,7V24H86a7,7,0,0,1,7,7v4.673A6.972,6.972,0,0,1,96,35h35a7,7,0,0,1,7,7V70a7,7,0,0,1-7,7H116V93a7,7,0,0,1-7,7Z" stroke="none"/>
    <path d="M 108.9999084472656 96.99990844726562 C 111.2056274414062 96.99990844726562 113.0001068115234 95.20542907714844 113.0001068115234 92.99971008300781 L 113.0001068115234 74.00041198730469 L 131.0004119873047 74.00041198730469 C 133.2061309814453 74.00041198730469 135.0006103515625 72.20590972900391 135.0006103515625 70.00019073486328 L 135.0006103515625 42.00030899047852 C 135.0006103515625 39.79458999633789 133.2061309814453 38.00009155273438 131.0004119873047 38.00009155273438 L 96.00030517578125 38.00009155273438 C 95.39912414550781 38.00009155273438 94.82274627685547 38.12911224365234 94.28718566894531 38.38357162475586 L 89.99970245361328 40.42073059082031 L 89.99970245361328 31.00051116943359 C 89.99970245361328 28.79479026794434 88.20562744140625 27.00031089782715 86.00040435791016 27.00031089782715 L 45.99960327148438 27.00031089782715 L 45.99960327148438 7.000210285186768 C 45.99960327148438 4.794490337371826 44.20552444458008 3.00001049041748 42.00030517578125 3.00001049041748 L 18.0000057220459 3.00001049041748 C 15.79428482055664 3.00001049041748 13.99980545043945 4.794490337371826 13.99980545043945 7.000210285186768 L 13.99980545043945 57.99991226196289 L 7.000205039978027 57.99991226196289 C 6.920065402984619 57.99991226196289 6.844665050506592 58.00201034545898 6.776085376739502 58.00614929199219 L 6.765964984893799 58.00675201416016 C 4.654205322265625 58.12712860107422 3.00000524520874 59.88122940063477 3.00000524520874 62.0001106262207 L 3.00000524520874 90.99990844726562 C 3.00000524520874 93.20562744140625 4.794485092163086 95.00010681152344 7.000205039978027 95.00010681152344 L 56.99970626831055 95.00010681152344 C 59.20542526245117 95.00010681152344 60.99990463256836 93.20562744140625 60.99990463256836 90.99990844726562 L 60.99990463256836 84.00031280517578 L 73.00020599365234 84.00031280517578 L 73.00020599365234 92.99971008300781 C 73.00020599365234 95.20542907714844 74.79468536376953 96.99990844726562 77.00040435791016 96.99990844726562 L 108.9999084472656 96.99990844726562 M 108.9999084472656 99.99990844726562 L 77.00040435791016 99.99990844726562 C 73.13400268554688 99.99990844726562 70.00020599365234 96.86611175537109 70.00020599365234 92.99971008300781 L 70.00020599365234 87.00031280517578 L 63.99990463256836 87.00031280517578 L 63.99990463256836 90.99990844726562 C 63.99990463256836 94.86631011962891 60.86610412597656 98.00010681152344 56.99970626831055 98.00010681152344 L 7.000205039978027 98.00010681152344 C 3.133805274963379 98.00010681152344 5.175781097932486e-06 94.86631011962891 5.175781097932486e-06 90.99990844726562 L 5.175781097932486e-06 62.0001106262207 C 5.175781097932486e-06 58.26959228515625 2.916905164718628 55.22130966186523 6.595205307006836 55.01161193847656 C 6.729305267333984 55.00350952148438 6.864305019378662 54.99991226196289 7.000205039978027 54.99991226196289 L 10.99980545043945 54.99991226196289 L 10.99980545043945 7.000210285186768 C 10.99980545043945 3.133810520172119 14.13360500335693 1.040893585013691e-05 18.0000057220459 1.040893585013691e-05 L 42.00030517578125 1.040893585013691e-05 C 45.86580657958984 1.040893585013691e-05 48.99960327148438 3.133810520172119 48.99960327148438 7.000210285186768 L 48.99960327148438 24.00031089782715 L 86.00040435791016 24.00031089782715 C 89.86590576171875 24.00031089782715 92.99970245361328 27.13410949707031 92.99970245361328 31.00051116943359 L 92.99970245361328 35.67388916015625 C 93.90916442871094 35.24177169799805 94.92632293701172 35.00009155273438 96.00030517578125 35.00009155273438 L 131.0004119873047 35.00009155273438 C 134.8659057617188 35.00009155273438 138.0006103515625 38.13389205932617 138.0006103515625 42.00030899047852 L 138.0006103515625 70.00019073486328 C 138.0006103515625 73.86570739746094 134.8659057617188 77.00041198730469 131.0004119873047 77.00041198730469 L 116.0001068115234 77.00041198730469 L 116.0001068115234 92.99971008300781 C 116.0001068115234 96.86611175537109 112.8663024902344 99.99990844726562 108.9999084472656 99.99990844726562 Z" stroke="none" fill="#505921"/>
  </g>
  <g id="Rectangle_3" data-name="Rectangle 3" transform="translate(102 55)" fill="none" stroke="#7d893b" stroke-width="3">
    <rect width="46" height="45" rx="7" stroke="none"/>
    <rect x="1.5" y="1.5" width="43" height="42" rx="5.5" fill="none"/>
  </g>
  <rect id="Rectangle_12" data-name="Rectangle 12" width="176" height="3" transform="translate(4 111)" fill="#793416"/>
  <g id="Rectangle_1" data-name="Rectangle 1" transform="translate(32 55)" fill="none" stroke="#7d893b" stroke-width="3">
    <rect width="64" height="43" rx="7" stroke="none"/>
    <rect x="1.5" y="1.5" width="61" height="40" rx="5.5" fill="none"/>
  </g>
</svg>
